<svg xmlns="http://www.w3.org/2000/svg" width="353.87" height="110.288" viewBox="0 0 353.87 110.288">
  <g id="Group_95" data-name="Group 95" transform="translate(-2574 411)">
    <g id="Group_12" data-name="Group 12" transform="translate(2504.229 -1011)">
      <g id="Group_1" data-name="Group 1" transform="translate(-754.774 69.042)">
        <rect id="Rectangle_4" data-name="Rectangle 4" width="31.194" height="31.194" transform="translate(868.659 553.016) rotate(45)" fill="#0073d8" opacity="0.6"/>
        <path id="Rectangle_11" data-name="Rectangle 11" d="M0,0H31.194V31.194H4a4,4,0,0,1-4-4Z" transform="translate(846.602 575.073) rotate(45)" fill="#0073d8" opacity="0.8"/>
        <rect id="Rectangle_7" data-name="Rectangle 7" width="31.194" height="31.194" transform="translate(912.774 553.016) rotate(45)" fill="#0073d8" opacity="0.6"/>
        <rect id="Rectangle_9" data-name="Rectangle 9" width="31.194" height="31.194" transform="translate(890.716 575.073) rotate(45)" fill="#0073d8" opacity="0.8"/>
        <path id="Rectangle_13" data-name="Rectangle 13" d="M0,0H31.194V27.194a4,4,0,0,1-4,4H0Z" transform="translate(912.774 597.131) rotate(45)" fill="#0073d8"/>
        <path id="Rectangle_14" data-name="Rectangle 14" d="M0,0H31.194V27.194a4,4,0,0,1-4,4H0Z" transform="translate(868.659 597.131) rotate(45)" fill="#0073d8"/>
        <path id="Rectangle_15" data-name="Rectangle 15" d="M0,0H31.194V27.194a4,4,0,0,1-4,4H0Z" transform="translate(956.889 597.131) rotate(45)" fill="#0073d8"/>
        <rect id="Rectangle_10" data-name="Rectangle 10" width="31.194" height="31.194" transform="translate(934.831 575.073) rotate(45)" fill="#0073d8" opacity="0.8"/>
        <path id="Rectangle_12" data-name="Rectangle 12" d="M0,0H27.194a4,4,0,0,1,4,4V31.194H0Z" transform="translate(978.946 575.073) rotate(45)" fill="#0073d8" opacity="0.8"/>
        <rect id="Rectangle_8" data-name="Rectangle 8" width="31.194" height="31.194" transform="translate(956.889 553.016) rotate(45)" fill="#0073d8" opacity="0.6"/>
        <path id="Rectangle_5" data-name="Rectangle 5" d="M3,0H31.194V31.194H0V3A3,3,0,0,1,3,0Z" transform="translate(890.716 530.958) rotate(45)" fill="#0073d8" opacity="0.4"/>
        <path id="Rectangle_6" data-name="Rectangle 6" d="M3,0H31.194V31.194H0V3A3,3,0,0,1,3,0Z" transform="translate(934.831 530.958) rotate(45)" fill="#0073d8" opacity="0.4"/>
      </g>
    </g>
    <path id="Path_250" data-name="Path 250" d="M15.4-10.78V-49H4.2V0H32.9V-10.78ZM46.48-13.3H71.33a20.348,20.348,0,0,0,.42-4.2c0-10.57-7.56-18.48-17.78-18.48-11.06,0-18.62,8.05-18.62,18.48S42.77.98,54.74.98C61.39.98,66.57-1.47,70-6.23l-8.4-4.83A9.139,9.139,0,0,1,54.88-8.4C51.03-8.4,47.81-9.66,46.48-13.3Zm-.21-7.84c.98-3.57,3.64-5.53,7.63-5.53a7.206,7.206,0,0,1,7.42,5.53ZM102.76-35v3.29c-2.31-2.66-5.74-4.27-10.43-4.27-9.17,0-16.73,8.05-16.73,18.48S83.16.98,92.33.98c4.69,0,8.12-1.61,10.43-4.27V0h10.5V-35ZM94.43-8.96c-4.83,0-8.33-3.29-8.33-8.54s3.5-8.54,8.33-8.54,8.33,3.29,8.33,8.54S99.26-8.96,94.43-8.96ZM146.37-49v17.29c-2.31-2.66-5.74-4.27-10.43-4.27-9.17,0-16.73,8.05-16.73,18.48S126.77.98,135.94.98c4.69,0,8.12-1.61,10.43-4.27V0h10.5V-49ZM138.04-8.96c-4.83,0-8.33-3.29-8.33-8.54s3.5-8.54,8.33-8.54,8.33,3.29,8.33,8.54S142.87-8.96,138.04-8.96Z" transform="translate(2771 -323)" fill="#141414"/>
  </g>
</svg>
